nColumns=28
nRows=20
DataType=double
version=3
OpenSimVersion=4.1
endheader
time	1_ground_force_vx	1_ground_force_vy	1_ground_force_vz	1_ground_force_px	1_ground_force_py	1_ground_force_pz	1_ground_torque_x	1_ground_torque_y	1_ground_torque_z	2_ground_force_vx	2_ground_force_vy	2_ground_force_vz	2_ground_force_px	2_ground_force_py	2_ground_force_pz	2_ground_torque_x	2_ground_torque_y	2_ground_torque_z	3_ground_force_vx	3_ground_force_vy	3_ground_force_vz	3_ground_force_px	3_ground_force_py	3_ground_force_pz	3_ground_torque_x	3_ground_torque_y	3_ground_torque_z
0.8191666666666667	-0.001661059977343583	0.001017392416142073	0.001160243276131247	0.3000081429673442	-0.005999999999992745	0.1999891300105456	-0.0001233281417975355	7.133335700841499e-05	8.504750647615338e-05	-4.287461413239129e-21	2.986378659954995e-21	-3.480378378771281e-21	-0.299999999867737	-0.005999999999992745	0.2000000001972515	1.624058969029347e-22	-5.211662995592193e-23	1.324384885651634e-22	-58.0379159959919	731.9090662340178	-36.67415393734487	0.9701611698637359	-0.005999999999992741	0.2547438722966423	0.2197111541147216	-2.772398029423959	0.1389291470469427
0.8200000000000001	-0.001455616919530537	0.0007910910534896211	0.0009749833204016697	0.3000064744812309	-0.005999999999992734	0.199990423460579	-0.0001085919719138681	4.751406475192653e-05	7.066666634305658e-05	-3.592693665350819e-21	-4.121204671293072e-23	-2.928078723381134e-21	-0.2999999998677288	-0.005999999999992734	0.2000000001972532	1.618399381346413e-22	5.650445755447172e-23	8.850992499624614e-23	-57.64733632682051	730.4535163645301	-36.4973303665293	0.9705781408884963	-0.00599999999999273	0.2547860681683916	0.2201759193056173	-2.791310763303735	0.1394854143937286
0.8208333333333334	-0.0012395645907173	0.0005719751955188337	0.0007880003517414122	0.3000048440606147	-0.005999999999992691	0.1999917932800607	-9.299764344222309e-05	2.528169459462197e-05	5.626862514313668e-05	-2.892944463075654e-21	-2.725827453781941e-21	-2.370144092224869e-21	-0.2999999998677216	-0.005999999999992691	0.2000000001972536	1.575779664416768e-22	1.515422063960697e-22	4.748753198011706e-23	-57.2607881115813	729.0201519063273	-36.31914616193436	0.9709945112527725	-0.005999999999992687	0.2548286339035683	0.2205179964027668	-2.808757448821897	0.1399533849365473
0.8216666666666668	-0.00101912089993934	0.0003643237091785045	0.0006038330761953898	0.3000032852839598	-0.005999999999992624	0.1999931990176104	-7.700439367293102e-05	4.973488815788661e-06	4.21898272190884e-05	-2.205033475017261e-21	-5.043842104253645e-21	-1.820173272157873e-21	-0.2999999998677154	-0.005999999999992624	0.2000000001972528	1.501365256070374e-22	2.323231203728799e-22	9.996061203522797e-24	-56.87892164146118	727.6099851721275	-36.14004674127607	0.9714100758247899	-0.00599999999999262	0.2548714903236737	0.2207393585462908	-2.824716716924488	0.1403338050509436
0.8225	-0.0007999033655403141	0.0001716657508824282	0.0004264420651791933	0.3000018262720428	-0.005999999999992536	0.199994603957009	-6.102884954291921e-05	-1.315611025697621e-05	2.872129331833881e-05	-1.543605270868789e-21	-6.982816492994134e-21	-1.29004381657464e-21	-0.2999999998677099	-0.005999999999992536	0.2000000001972509	1.400476740529325e-22	2.985810081579429e-22	-2.34923441484891e-23	-56.50241483500096	726.2239064865008	-35.960486782472	0.9718246368238336	-0.005999999999992533	0.2549145319646812	0.2208432094428652	-2.839180670598646	0.140628206523981
0.8233333333333334	-0.0005868664295215501	-3.216533420098552e-06	0.000259183050688398	0.3000004896511677	-0.005999999999992435	0.1999959755482658	-4.544016184721542e-05	-2.893201801069212e-05	1.610699075725701e-05	-9.210348057359138e-22	-8.540522424203112e-21	-7.898305426405095e-22	-0.2999999998677049	-0.005999999999992435	0.2000000001972481	1.278448711472055e-22	3.504171555760719e-22	-5.26518787380299e-23	-56.13196705321847	724.8626628357473	-35.78092512761168	0.9722380062428048	-0.005999999999992432	0.2549576297630058	0.2208339716641041	-2.852155206667854	0.1408388957921189
0.8241666666666667	-0.000384261258369426	-0.0001582682580389584	0.0001047972893492126	0.2999992926481873	-0.005999999999992323	0.1999972856931976	-3.055679212347982e-05	-4.225361047516162e-05	4.543480881836372e-06	-3.473963104504703e-22	-9.72384123700467e-21	-3.277751177297564e-22	-0.2999999998677003	-0.005999999999992323	0.2000000001972443	1.140504253439026e-22	3.882564596886282e-22	-7.729411300172015e-23	-55.76829094669754	723.5268390411809	-35.60181872509697	0.9726500085560421	-0.00599999999999232	0.2550006349876054	0.2207172393809929	-2.8636599994463	0.1409689217447342
0.8250000000000001	-0.0001956164240397972	-0.0002921273821862392	-3.45827090579685e-05	0.2999982473002352	-0.005999999999992204	0.1999985108953173	-1.664484015950288e-05	-5.308865053815884e-05	-5.819292278444917e-06	1.695108521538448e-22	-1.054757485784898e-20	8.96983297410513e-23	-0.2999999998676957	-0.005999999999992204	0.2000000001972398	9.916461933343857e-23	4.12800999978652e-22	-9.735685191278205e-23	-55.41210213185236	722.2168418292342	-35.42361587440711	0.9730604837984526	-0.005999999999992201	0.2550433842463729	0.2204996980819348	-2.873728185323335	0.1410220252213955
0.8258333333333334	-2.373755514348487e-05	-0.0004040780857302548	-0.0001574139573860521	0.2999973607613354	-0.00599999999999208	0.1999996322858816	-3.917776939173959e-06	-6.146631148855587e-05	-1.487621940432434e-05	6.240864009836713e-22	-1.103320714965265e-20	4.579271370011011e-22	-0.299999999867691	-0.00599999999999208	0.2000000001972346	8.36565754056493e-23	4.249824148172264e-22	-1.128913195905303e-22	-55.06410673330272	720.9328870795713	-35.24674912405762	0.9734692910085309	-0.005999999999992077	0.2550857052623771	0.2201890170391762	-2.882405815638382	0.1410025750911933
0.8266666666666668	0.0001292761765846502	-0.0004939943984857989	-0.0002627122424293719	0.299996635687823	-0.005999999999991954	0.2000006355394803	7.462569537917904e-06	-6.746956194180993e-05	-2.256440302727854e-05	1.012810821591198e-21	-1.120764994947164e-20	7.739194447832748e-22	-0.2999999998676863	-0.005999999999991954	0.2000000001972293	6.795687665962109e-23	4.259143245889767e-22	-1.240481566149161e-22	-54.72498714186118	719.6749905225502	-35.07162822585849	0.9738763119356746	-0.00599999999999195	0.255127423042843	0.219793722267499	-2.889751154390762	0.1409154964617225
0.8275	0.0002620010193994535	-0.0005622764937244072	-0.0003500118680210479	0.2999960706847184	-0.005999999999991826	0.2000015106936083	1.738394000057368e-05	-7.1227161209266e-05	-2.885985027424919e-05	1.334092075353872e-21	-1.110200465708641e-20	1.036234960057261e-21	-0.2999999998676815	-0.005999999999991826	0.2000000001972241	5.245191713535322e-23	4.168459015358591e-22	-1.310626894887683e-22	-54.39538656956044	718.4429621826756	-34.89863356287449	0.9742814548288198	-0.005999999999991823	0.2551683660501541	0.2193230578300825	-2.895833886973258	0.1407661961015153
0.8283333333333334	0.0003736454190350696	-0.0006097819546861907	-0.0004193178993142139	0.2999956607957983	-0.005999999999991696	0.2000022518872579	2.578065236209311e-05	-7.290549508717455e-05	-3.37736353673267e-05	1.588084845361535e-21	-1.075036638916209e-20	1.244843141864681e-21	-0.2999999998676768	-0.005999999999991696	0.2000000001972192	3.747991681674897e-23	3.991175354668698e-22	-1.342398966983546e-22	-54.0758930781682	717.2364048570615	-34.72811044061995	0.9746846580579264	-0.005999999999991693	0.2552083720112319	0.2187868416002228	-2.900734278970698	0.1405604887119755
0.8291666666666667	0.0004639969913210398	-0.0006377541788457597	-0.0004710528648612201	0.2999953980210427	-0.005999999999991563	0.2000028570337528	3.262986601341999e-05	-7.270045976891134e-05	-3.734768093401862e-05	1.776489620828082e-21	-1.018869367297591e-20	1.400964655399341e-21	-0.2999999998676724	-0.005999999999991563	0.2000000001972145	2.332850601188857e-23	3.741193885667234e-22	-1.339394549227504e-22	-53.767023759834	716.0547168442987	-34.56036456408218	0.9750858932807586	-0.00599999999999156	0.2552472930545581	0.2181953188954744	-2.90454228937487	0.1403045257228704
0.8300000000000001	0.0005333620295198349	-0.0006477499066339386	-0.0005059997808299703	0.2999952718463424	-0.005999999999991426	0.2000033274428538	3.794727280961205e-05	-7.08295770020714e-05	-3.965029920125794e-05	1.902338565381955e-21	-9.453762535752433e-21	1.506901667888036e-21	-0.2999999998676683	-0.005999999999991426	0.20000000019721	1.023375794364346e-23	3.432534758063772e-22	-1.305612037519017e-22	-53.46920970127144	714.8970990023264	-34.39565891786098	0.9754851678445174	-0.005999999999991423	0.2552849999275974	0.2175590149530986	-2.907356613316017	0.1400047264408702
0.8308333333333334	0.0005824997951197453	-0.0006415676572242598	-0.000525243236532507	0.2999952697717755	-0.005999999999991287	0.2000036674066457	4.178237962407412e-05	-6.752449755286859e-05	-4.077162378811743e-05	1.969774637037623e-21	-8.582219754815591e-21	1.565862189432474e-21	-0.2999999998676647	-0.005999999999991287	0.2000000001972054	-1.619471574000239e-24	3.078997536458874e-22	-1.245313193267551e-22	-53.18278229273233	713.7625660536766	-34.23421212090228	0.9758825260925622	-0.005999999999991284	0.255321385121345	0.2168885855669792	-2.909283611458945	0.1396677099247513
0.8316666666666667	0.0006125537079767302	-0.0006211786315420487	-0.0005301101290110658	0.2999953778263427	-0.005999999999991146	0.2000038837629189	4.421353820845863e-05	-6.302402327593103e-05	-4.08190505873139e-05	1.983829853782325e-21	-7.609746062030383e-21	1.581783212537914e-21	-0.2999999998676615	-0.005999999999991146	0.2000000001972009	-1.209605292299354e-23	2.693865520693027e-22	-1.16289438037668e-22	-52.90796137673561	712.6499619513099	-34.07619816208436	0.9762780492406059	-0.005999999999991143	0.2553563648428038	0.2161946642753482	-2.910436074552929	0.1393002248724943
0.8325	0.0006249813847076765	-0.000588661409086224	-0.0005221114632163348	0.2999955810587306	-0.005999999999990999	0.2000039854487297	4.534286637355464e-05	-5.756775131959071e-05	-3.991279262889898e-05	1.950207952741798e-21	-6.570336322187137e-21	1.559156894949521e-21	-0.2999999998676586	-0.005999999999990999	0.2000000001971963	-2.110810466190617e-23	2.28965546236378e-22	-1.062769221046385e-22	-52.64484567319042	711.5579791173064	-33.92174729609849	0.9766718535132682	-0.005999999999990995	0.2553898799289155	0.2154877043874678	-2.91093177407034	0.1389090743992535
0.8333333333333334	0.0006214852808330755	-0.0005461415271519047	-0.0005028864495337695	0.2999958639954115	-0.005999999999990843	0.2000039830556238	4.529119076233985e-05	-5.139041784742456e-05	-3.818163932189345e-05	1.875075995968133e-21	-5.495700194394087e-21	1.502863480211659e-21	-0.299999999867656	-0.005999999999990843	0.2000000001971919	-2.861169774739601e-23	1.877913363955032e-22	-9.492641066438716e-23	-52.39340584824634	710.4851814159709	-33.77094783938205	0.9770640863051426	-0.00599999999999084	0.2554218959083821	0.2147778152374347	-2.910891769352208	0.1385010333518953
0.8341666666666667	0.0006039454798264744	-0.000495736794635803	-0.0004741499378921706	0.2999962110591241	-0.005999999999990679	0.2000038883966654	4.419312626833821e-05	-4.471699366373795e-05	-3.575899550962521e-05	1.764868753696799e-21	-4.414783590012945e-21	1.418014076484159e-21	-0.2999999998676536	-0.005999999999990679	0.2000000001971877	-3.460291094547135e-23	1.469055898862294e-22	-8.265275389888649e-23	-52.15348050652172	709.4300307069434	-33.62384863862405	0.9774549202701484	-0.005999999999990675	0.2554524024268191	0.2140745940249448	-2.910438473652696	0.1380827574803909
0.8350000000000001	0.0005743559480235589	-0.0004395089631082036	-0.000437644032771762	0.2999966069424904	-0.005999999999990503	0.2000037140939998	4.219239098056303e-05	-3.775856074392083e-05	-3.277926075196331e-05	1.626108966307948e-21	-3.353408398846494e-21	1.309805832600169e-21	-0.2999999998676514	-0.005999999999990503	0.2000000001971837	-3.911340236937651e-23	1.072255982868619e-22	-6.984538459022209e-23	-51.92477529708805	708.3909166670702	-33.48046203888459	0.9778445454550295	-0.005999999999990499	0.2554814121949861	0.2133869562900551	-2.909693509071086	0.1376606853572109
